/* XPM */
static char * Kapital_xpm[] = {
"22 22 2 1",
" 	c None",
".	c #CCCCCC",
"                      ",
"                      ",
"                      ",
"                      ",
"                      ",
"                      ",
"                      ",
"                      ",
"       ..   ..        ",
"       ..  ..         ",
"       .. ..          ",
"       ....           ",
"       ....           ",
"       .. ..          ",
"       ..  ..         ",
"       ..   ..        ",
"       ..    ..       ",
"                      ",
"                      ",
"                      ",
"                      ",
"                      "};
