/* XPM */
static char * Stift_xpm[] = {
"16 16 2 1",
" 	c None",
".	c #CCCCCC",
"                ",
"                ",
"            ..  ",
"           ...  ",
"          ...   ",
"         ...    ",
"        ...     ",
"       ...      ",
"      ...       ",
"     ...        ",
"    ...         ",
"   ...          ",
"  ...           ",
"  ..            ",
"                ",
"                "};
